<?xml version="1.0" standalone="no"?>
<!DOCTYPE svg PUBLIC "-//W3C//DTD SVG 20010904//EN"
 "http://www.w3.org/TR/2001/REC-SVG-20010904/DTD/svg10.dtd">
<svg version="1.0" xmlns="http://www.w3.org/2000/svg"
 width="270.000000pt" height="302.000000pt" viewBox="0 0 270.000000 302.000000"
 preserveAspectRatio="xMidYMid meet">

<g transform="translate(0.000000,302.000000) scale(0.100000,-0.100000)"
fill="#000000" stroke="none">
<path d="M0 1510 l0 -1510 1350 0 1350 0 0 1510 0 1510 -1350 0 -1350 0 0
-1510z m2094 1349 c129 -90 132 -100 46 -159 l-60 -41 71 -102 c39 -56 121
-175 182 -264 109 -158 111 -161 133 -146 29 19 55 10 76 -25 l17 -29 -74 -51
-75 -50 -20 28 c-25 36 -25 56 0 72 11 7 20 16 20 21 0 13 -351 517 -361 517
-5 0 -34 -16 -63 -36 -30 -20 -63 -34 -73 -32 -14 2 -25 30 -50 118 -45 162
-45 160 30 214 34 25 69 44 79 42 9 -2 64 -37 122 -77z m-235 -496 c42 -40
161 -220 161 -244 0 -11 -4 -29 -10 -39 -11 -21 -291 -218 -332 -234 -49 -18
-76 1 -159 119 -87 123 -99 164 -56 202 19 17 132 96 281 197 49 33 78 33 115
-1z m-1253 -59 c96 -46 129 -168 70 -257 -26 -39 -98 -77 -146 -77 -42 0 -108
29 -134 59 -45 51 -49 163 -7 221 45 63 146 88 217 54z m1511 -21 c16 -21 69
-95 116 -165 95 -137 106 -173 65 -202 -28 -20 -57 -20 -77 -2 -14 12 -44 -5
-246 -145 -222 -155 -230 -161 -230 -193 0 -60 -55 -95 -98 -63 -25 18 -237
329 -237 347 0 8 7 26 16 38 12 18 24 22 52 20 32 -3 43 -11 82 -65 25 -35 55
-65 67 -69 17 -4 69 27 232 141 241 168 236 160 171 255 -22 32 -40 69 -40 81
0 33 29 59 66 59 26 0 38 -8 61 -37z m-1355 -375 c19 -15 40 -39 47 -55 19
-48 201 -686 201 -707 0 -28 -39 -66 -67 -66 -39 0 -58 32 -102 171 -84 265
-95 299 -103 299 -6 0 -14 -208 -9 -270 0 -8 32 -254 71 -546 38 -293 70 -539
70 -548 0 -9 -9 -25 -20 -36 -16 -16 -33 -20 -89 -20 -62 0 -72 3 -88 24 -16
20 -30 108 -78 500 -33 261 -62 472 -66 468 -3 -4 -32 -218 -64 -477 -67 -547
-56 -515 -167 -515 -55 0 -72 4 -88 20 -11 11 -20 26 -20 33 0 7 33 262 74
567 67 510 73 565 68 683 -2 71 -8 125 -12 120 -4 -4 -36 -98 -70 -208 -72
-232 -81 -252 -117 -261 -31 -8 -53 3 -72 38 -14 23 -7 51 83 364 53 187 102
352 108 367 12 30 60 72 93 80 11 3 101 5 201 4 179 -2 181 -2 216 -29z m1208
-463 c0 -96 3 -115 15 -115 8 0 15 -3 15 -7 0 -8 -79 -113 -85 -113 -6 0 -85
105 -85 113 0 4 7 7 15 7 12 0 15 19 15 115 l0 115 55 0 55 0 0 -115z m-676
20 c13 -9 29 -28 35 -44 7 -15 54 -205 104 -422 l93 -394 394 -3 c216 -1 397
1 402 6 4 4 26 98 48 207 22 110 42 210 45 222 l5 23 -477 2 c-456 3 -478 4
-481 22 -2 10 1 23 8 30 8 8 149 12 488 16 l476 5 6 31 c8 37 -4 74 -24 74
-19 0 -38 34 -30 54 13 35 71 28 108 -12 34 -39 30 -93 -33 -407 -58 -287 -62
-301 -91 -328 l-30 -27 -396 0 -396 0 7 -37 c14 -79 -22 -72 437 -75 379 -3
412 -4 422 -20 8 -13 8 -23 0 -35 -10 -17 -44 -18 -429 -21 -451 -2 -444 -3
-479 51 -8 12 -65 236 -126 497 -61 261 -115 485 -120 498 -9 21 -15 22 -115
22 -102 0 -106 1 -117 25 -8 19 -8 28 2 40 18 22 230 22 264 0z m1028 -1192
c95 -86 27 -224 -100 -205 -38 5 -89 52 -94 85 -18 116 111 196 194 120z
m-586 -7 c32 -32 39 -54 34 -101 -7 -69 -86 -118 -154 -95 -48 16 -81 63 -81
118 0 37 5 48 37 78 32 28 45 34 84 34 39 0 51 -5 80 -34z"/>
<path d="M2217 213 c-15 -14 -6 -53 14 -64 18 -9 25 -7 41 9 16 16 18 23 9 41
-11 20 -50 29 -64 14z"/>
<path d="M1627 213 c-14 -14 -6 -53 13 -63 28 -15 65 22 50 50 -10 19 -49 27
-63 13z"/>
</g>
</svg>
